<svg width="154" height="23" viewBox="0 0 154 23" fill="none" xmlns="http://www.w3.org/2000/svg">
<path d="M11.668 21H0.488281V19.4414L6.39453 12.8789C7.26953 11.8867 7.87109 11.082 8.19922 10.4648C8.53516 9.83984 8.70312 9.19531 8.70312 8.53125C8.70312 7.64062 8.43359 6.91016 7.89453 6.33984C7.35547 5.76953 6.63672 5.48438 5.73828 5.48438C4.66016 5.48438 3.82031 5.79297 3.21875 6.41016C2.625 7.01953 2.32812 7.87109 2.32812 8.96484H0.160156C0.160156 7.39453 0.664062 6.125 1.67188 5.15625C2.6875 4.1875 4.04297 3.70312 5.73828 3.70312C7.32422 3.70312 8.57812 4.12109 9.5 4.95703C10.4219 5.78516 10.8828 6.89062 10.8828 8.27344C10.8828 9.95312 9.8125 11.9531 7.67188 14.2734L3.10156 19.2305H11.668V21ZM24.6641 13.7227C24.6641 16.2617 24.2305 18.1484 23.3633 19.3828C22.4961 20.6172 21.1406 21.2344 19.2969 21.2344C17.4766 21.2344 16.1289 20.6328 15.2539 19.4297C14.3789 18.2188 13.9258 16.4141 13.8945 14.0156V11.1211C13.8945 8.61328 14.3281 6.75 15.1953 5.53125C16.0625 4.3125 17.4219 3.70312 19.2734 3.70312C21.1094 3.70312 22.4609 4.29297 23.3281 5.47266C24.1953 6.64453 24.6406 8.45703 24.6641 10.9102V13.7227ZM22.4961 10.7578C22.4961 8.92188 22.2383 7.58594 21.7227 6.75C21.207 5.90625 20.3906 5.48438 19.2734 5.48438C18.1641 5.48438 17.3555 5.90234 16.8477 6.73828C16.3398 7.57422 16.0781 8.85938 16.0625 10.5938V14.0625C16.0625 15.9062 16.3281 17.2695 16.8594 18.1523C17.3984 19.0273 18.2109 19.4648 19.2969 19.4648C20.3672 19.4648 21.1602 19.0508 21.6758 18.2227C22.1992 17.3945 22.4727 16.0898 22.4961 14.3086V10.7578ZM38.6211 21H27.4414V19.4414L33.3477 12.8789C34.2227 11.8867 34.8242 11.082 35.1523 10.4648C35.4883 9.83984 35.6562 9.19531 35.6562 8.53125C35.6562 7.64062 35.3867 6.91016 34.8477 6.33984C34.3086 5.76953 33.5898 5.48438 32.6914 5.48438C31.6133 5.48438 30.7734 5.79297 30.1719 6.41016C29.5781 7.01953 29.2812 7.87109 29.2812 8.96484H27.1133C27.1133 7.39453 27.6172 6.125 28.625 5.15625C29.6406 4.1875 30.9961 3.70312 32.6914 3.70312C34.2773 3.70312 35.5312 4.12109 36.4531 4.95703C37.375 5.78516 37.8359 6.89062 37.8359 8.27344C37.8359 9.95312 36.7656 11.9531 34.625 14.2734L30.0547 19.2305H38.6211V21ZM48.043 21H45.8633V6.55078L41.4922 8.15625V6.1875L47.7031 3.85547H48.043V21ZM71.7937 13.296V6.936H78.6817V13.296H71.7937ZM63.0817 13.296V6.936H69.9457V13.296H63.0817ZM71.7937 5.184V0.912H69.9457V5.184H61.3297V16.536H63.0817V15.048H69.9457V22.824H71.7937V15.048H78.6817V16.416H80.5057V5.184H71.7937ZM103.666 6.168C103.114 8.112 102.034 10.8 101.17 12.432L102.658 12.936C103.546 11.304 104.578 8.784 105.418 6.648L103.666 6.168ZM94.7377 13.008C95.8177 11.376 96.3937 8.736 96.5617 6.432L95.0257 6.192C94.8097 8.424 94.2337 10.968 93.2257 12.336L94.7377 13.008ZM93.0097 13.608C92.5777 13.008 90.6817 10.608 90.0577 9.936V9.408H93.6097V7.752H90.0577V3.48C91.2097 3.192 92.3137 2.856 93.2257 2.496L92.0017 1.152C90.2017 1.92 87.0097 2.616 84.2497 3.072C84.4657 3.456 84.7057 4.032 84.8017 4.44C85.9297 4.272 87.1297 4.08 88.3057 3.84V7.752H84.1777V9.408H87.9937C87.0097 12.192 85.2577 15.312 83.6497 17.04C83.9617 17.472 84.4177 18.24 84.5857 18.744C85.9057 17.232 87.2737 14.736 88.3057 12.264V22.848H90.0577V11.88C90.7537 12.936 91.5937 14.328 91.9297 15.024L93.0097 13.608ZM98.5297 0.935999C98.5057 10.152 98.6737 17.832 92.0977 21.6C92.5057 21.864 93.0817 22.464 93.3217 22.872C96.7057 20.832 98.3857 17.856 99.2977 14.184C100.33 18.12 102.058 21.072 105.01 22.8C105.25 22.344 105.754 21.72 106.138 21.384C102.49 19.44 100.738 15.24 99.9457 9.84C100.186 7.104 100.21 4.08 100.21 0.935999H98.5297ZM114.658 3.696C113.65 3.024 111.634 1.92 110.17 1.224L109.186 2.496C110.65 3.288 112.642 4.44 113.626 5.136L114.658 3.696ZM113.434 10.176C112.378 9.504 110.386 8.448 108.994 7.752L108.01 9.048C109.474 9.816 111.442 10.968 112.426 11.64L113.434 10.176ZM110.074 22.512C111.49 20.304 113.17 17.328 114.418 14.808L113.122 13.632C111.73 16.344 109.882 19.512 108.586 21.312L110.074 22.512ZM126.538 20.16H118.018V15.216H126.538V20.16ZM129.802 9.624V7.896H123.226V3.744C125.29 3.384 127.21 2.928 128.77 2.4L127.378 1.008C124.714 1.968 119.89 2.712 115.762 3.144C115.93 3.552 116.17 4.224 116.266 4.656C117.97 4.488 119.77 4.272 121.522 4.008V7.896H114.61V9.624H121.522V13.56H116.362V22.824H118.018V21.816H126.538V22.704H128.242V13.56H123.226V9.624H129.802ZM134.194 13.776V12.024H137.218V13.776H134.194ZM134.194 9.12H137.218V10.848H134.194V9.12ZM141.97 9.12V10.848H138.826V9.12H141.97ZM141.97 13.776H138.826V12.024H141.97V13.776ZM148.282 6.48C148.33 4.8 148.33 3.024 148.33 1.224H146.65C146.65 3.048 146.65 4.8 146.602 6.48H143.746V8.16H146.554C146.338 12.648 145.69 16.512 143.626 19.344V19.248C142.018 19.44 140.386 19.608 138.826 19.752V17.856H143.53V16.488H138.826V15.024H143.482V7.896H138.826V6.384H143.914V4.992H138.826V3.24C140.578 3.048 142.21 2.832 143.506 2.544L142.618 1.176C140.146 1.728 135.826 2.16 132.274 2.352C132.466 2.712 132.634 3.288 132.706 3.672C134.122 3.624 135.682 3.528 137.218 3.408V4.992H132.034V6.384H137.218V7.896H132.73V15.024H137.218V16.488H132.682V17.856H137.218V19.92C135.25 20.112 133.45 20.28 132.01 20.4L132.274 21.96C134.962 21.672 138.682 21.264 142.306 20.832C141.994 21.12 141.658 21.408 141.274 21.672C141.706 21.96 142.33 22.56 142.594 22.944C146.818 19.776 147.922 14.544 148.21 8.16H151.642C151.402 16.872 151.114 20.04 150.562 20.736C150.322 21.048 150.106 21.12 149.698 21.12C149.242 21.12 148.186 21.096 147.034 21C147.298 21.456 147.49 22.2 147.538 22.68C148.642 22.752 149.77 22.776 150.442 22.68C151.162 22.608 151.642 22.416 152.05 21.792C152.866 20.784 153.082 17.448 153.346 7.392C153.346 7.152 153.37 6.48 153.37 6.48H148.282Z" fill="black"/>
</svg>
