<svg width="40" height="40" viewBox="0 0 40 40" fill="none" xmlns="http://www.w3.org/2000/svg">
<path d="M20 36.6667C10.7953 36.6667 3.33334 29.2048 3.33334 20C3.33334 10.7953 10.7953 3.33334 20 3.33334C29.2048 3.33334 36.6667 10.7953 36.6667 20C36.6566 29.2006 29.2006 36.6566 20 36.6667ZM6.66668 20.2867C6.74554 27.6221 12.7352 33.5159 20.0709 33.4767C27.4066 33.4371 33.3326 27.4792 33.3326 20.1433C33.3326 12.8075 27.4066 6.84963 20.0709 6.81001C12.7352 6.77077 6.74554 12.6646 6.66668 20V20.2867ZM23.3333 28.3333H18.3333V21.6667H16.6667V18.3333H21.6667V25H23.3333V28.3333ZM21.6667 15H18.3333V11.6667H21.6667V15Z" fill="#2E3A59"/>
</svg>
