<svg width="341" height="128" viewBox="0 0 341 128" fill="none" xmlns="http://www.w3.org/2000/svg">
<g filter="url(#filter0_d)">
<path fill-rule="evenodd" clip-rule="evenodd" d="M35 40C35 31.7157 41.7157 25 50 25H291C299.284 25 306 31.7157 306 40V68C306 76.2843 299.284 83 291 83H50C41.7157 83 35 76.2843 35 68V40Z" fill="#5669FF"/>
</g>
<circle cx="277" cy="54" r="15" fill="#3D56F0"/>
<path d="M270 53.5C270 53.0513 270.364 52.6875 270.812 52.6875H279.872L275.911 48.7267C275.587 48.4029 275.592 47.8766 275.921 47.5587C276.243 47.2485 276.753 47.2531 277.069 47.5688L282.936 53.4356C282.971 53.4712 282.971 53.5288 282.936 53.5644L277.07 59.43C276.755 59.7448 276.245 59.7448 275.93 59.43C275.616 59.1162 275.615 58.6078 275.927 58.2926L279.872 54.3125H270.812C270.364 54.3125 270 53.9487 270 53.5Z" fill="white"/>
<path d="M83.386 60.81H98.686V59.604H83.386V60.81ZM94.582 55.14H87.328V53.646H94.582V55.14ZM94.582 57.57H87.328V56.076H94.582V57.57ZM86.014 52.692V58.524H95.95V52.692H86.014ZM98.938 48.408V47.22H91.612V44.952H90.298V47.22H83.08V48.408H88.84C87.31 50.1 84.898 51.612 82.702 52.368C82.972 52.62 83.368 53.124 83.584 53.43C86.014 52.458 88.678 50.604 90.298 48.498V52.152H91.612V48.48C93.268 50.532 95.914 52.368 98.398 53.286C98.596 52.962 98.992 52.44 99.28 52.206C97.012 51.504 94.6 50.028 93.034 48.408H98.938ZM114.806 55.194H106.994V53.952H114.806V55.194ZM106.994 59.64V58.308H114.806V59.64H106.994ZM114.806 57.372H106.994V56.112H114.806V57.372ZM117.884 51.648V50.532H108.452C108.668 50.1 108.866 49.65 109.046 49.218H116.84V48.138H109.424C109.568 47.688 109.712 47.256 109.838 46.806C112.412 46.662 114.86 46.428 116.66 46.05L115.814 45.078C112.988 45.654 107.534 45.942 103.178 45.978C103.304 46.266 103.43 46.698 103.448 47.004C104.996 47.004 106.688 46.968 108.362 46.878C108.254 47.31 108.128 47.724 107.984 48.138H103.43V49.218H107.588C107.426 49.65 107.21 50.1 106.994 50.532H102.116V51.648H106.364C105.248 53.52 103.7 55.194 101.684 56.364C101.936 56.598 102.332 57.084 102.512 57.39C103.736 56.652 104.798 55.752 105.716 54.744V61.422H106.994V60.72H114.806V61.422H116.12V52.89H107.156C107.426 52.494 107.66 52.062 107.894 51.648H117.884ZM126.876 45.564H121.692V46.644H126.876V45.564ZM127.542 47.922H120.756V49.02H127.542V47.922ZM125.742 56.238V59.262H122.736V56.238H125.742ZM126.912 55.14H121.566V61.17H122.736V60.342H126.912V55.14ZM121.602 53.808H126.93V52.728H121.602V53.808ZM121.602 51.414H126.93V50.352H121.602V51.414ZM137.262 55.698H133.014V53.142H136.632V51.936H133.014V49.596H137.01V48.354H134.652C135.138 47.544 135.714 46.356 136.218 45.33L134.904 44.916C134.616 45.87 133.986 47.238 133.536 48.102L134.184 48.354H130.566L131.214 48.084C131.016 47.256 130.404 45.996 129.81 45.042L128.73 45.438C129.27 46.32 129.792 47.508 130.026 48.354H127.956V49.596H131.718V51.936H128.298V53.142H131.718V55.698H127.398V56.922H131.718V61.368H133.014V56.922H137.262V55.698ZM140.728 55.14C140.512 56.706 140.188 58.308 139.612 59.406C139.9 59.496 140.44 59.748 140.656 59.91C141.214 58.758 141.646 57.03 141.88 55.338L140.728 55.14ZM144.616 55.41C145.102 56.508 145.624 57.966 145.786 58.902L146.866 58.542C146.668 57.606 146.164 56.166 145.642 55.068L144.616 55.41ZM144.292 51.072C144.58 51.504 144.85 51.99 145.102 52.476L142.312 52.656C143.554 51.162 144.922 49.164 145.93 47.526L144.814 46.986C144.292 47.976 143.572 49.182 142.798 50.334C142.51 49.956 142.132 49.506 141.7 49.074C142.384 48.066 143.176 46.626 143.806 45.402L142.6 44.934C142.222 45.942 141.556 47.328 140.944 48.336C140.764 48.174 140.602 48.012 140.422 47.868L139.738 48.75C140.602 49.488 141.574 50.55 142.096 51.342C141.736 51.846 141.376 52.332 141.016 52.746C140.512 52.782 140.044 52.818 139.612 52.836L139.81 54.06L142.78 53.79V61.35H143.986V53.682L145.606 53.52C145.822 54.024 146.002 54.474 146.11 54.852L147.19 54.33C146.884 53.322 146.092 51.792 145.3 50.64L144.292 51.072ZM151.96 58.938V53.79H154.426V58.938H151.96ZM148.432 53.79H150.772V58.938H148.432V53.79ZM150.772 47.616V52.566H148.432V47.616H150.772ZM154.426 52.566H151.96V47.616H154.426V52.566ZM147.226 46.374V61.152H148.432V60.18H154.426V61.008H155.668V46.374H147.226ZM163.796 47.022C163.04 46.518 161.528 45.69 160.43 45.168L159.692 46.122C160.79 46.716 162.284 47.58 163.022 48.102L163.796 47.022ZM162.878 51.882C162.086 51.378 160.592 50.586 159.548 50.064L158.81 51.036C159.908 51.612 161.384 52.476 162.122 52.98L162.878 51.882ZM160.358 61.134C161.42 59.478 162.68 57.246 163.616 55.356L162.644 54.474C161.6 56.508 160.214 58.884 159.242 60.234L160.358 61.134ZM172.706 59.37H166.316V55.662H172.706V59.37ZM175.154 51.468V50.172H170.222V47.058C171.77 46.788 173.21 46.446 174.38 46.05L173.336 45.006C171.338 45.726 167.72 46.284 164.624 46.608C164.75 46.914 164.93 47.418 165.002 47.742C166.28 47.616 167.63 47.454 168.944 47.256V50.172H163.76V51.468H168.944V54.42H165.074V61.368H166.316V60.612H172.706V61.278H173.984V54.42H170.222V51.468H175.154ZM179.448 54.582V53.268H181.716V54.582H179.448ZM179.448 51.09H181.716V52.386H179.448V51.09ZM185.28 51.09V52.386H182.922V51.09H185.28ZM185.28 54.582H182.922V53.268H185.28V54.582ZM190.014 49.11C190.05 47.85 190.05 46.518 190.05 45.168H188.79C188.79 46.536 188.79 47.85 188.754 49.11H186.612V50.37H188.718C188.556 53.736 188.07 56.634 186.522 58.758V58.686C185.316 58.83 184.092 58.956 182.922 59.064V57.642H186.45V56.616H182.922V55.518H186.414V50.172H182.922V49.038H186.738V47.994H182.922V46.68C184.236 46.536 185.46 46.374 186.432 46.158L185.766 45.132C183.912 45.546 180.672 45.87 178.008 46.014C178.152 46.284 178.278 46.716 178.332 47.004C179.394 46.968 180.564 46.896 181.716 46.806V47.994H177.828V49.038H181.716V50.172H178.35V55.518H181.716V56.616H178.314V57.642H181.716V59.19C180.24 59.334 178.89 59.46 177.81 59.55L178.008 60.72C180.024 60.504 182.814 60.198 185.532 59.874C185.298 60.09 185.046 60.306 184.758 60.504C185.082 60.72 185.55 61.17 185.748 61.458C188.916 59.082 189.744 55.158 189.96 50.37H192.534C192.354 56.904 192.138 59.28 191.724 59.802C191.544 60.036 191.382 60.09 191.076 60.09C190.734 60.09 189.942 60.072 189.078 60C189.276 60.342 189.42 60.9 189.456 61.26C190.284 61.314 191.13 61.332 191.634 61.26C192.174 61.206 192.534 61.062 192.84 60.594C193.452 59.838 193.614 57.336 193.812 49.794C193.812 49.614 193.83 49.11 193.83 49.11H190.014ZM206.656 47.256C206.224 48.894 205.144 49.794 202.21 50.316C202.426 50.55 202.732 50.982 202.84 51.27C205.396 50.766 206.728 49.92 207.43 48.588C208.096 49.884 209.41 51.036 212.47 51.576C212.596 51.252 212.902 50.748 213.154 50.496C209.464 49.956 208.456 48.642 208.06 47.256H210.94C210.616 47.778 210.22 48.282 209.842 48.642L210.904 49.02C211.552 48.39 212.218 47.382 212.722 46.464L211.822 46.194L211.606 46.248H205.45C205.684 45.87 205.882 45.51 206.062 45.132L204.856 44.934C204.388 46.014 203.488 47.22 202.138 48.156C202.462 48.282 202.894 48.57 203.146 48.822C203.776 48.336 204.298 47.814 204.748 47.256H206.656ZM200.59 56.364H209.608V57.624H200.59V56.364ZM200.59 54.258H209.608V55.5H200.59V54.258ZM200.59 52.188H209.608V53.394H200.59V52.188ZM199.294 58.506H210.94V51.288H199.294V58.506ZM202.138 46.716C201.274 46.266 199.618 45.672 198.376 45.33L197.782 46.248C199.06 46.644 200.716 47.274 201.544 47.76L202.138 46.716ZM201.922 48.678C200.086 49.182 198.196 49.722 196.9 50.028L197.422 51.198C198.772 50.766 200.464 50.244 202.084 49.722L201.922 48.678ZM202.3 58.686C201.022 59.406 198.862 60.036 197.026 60.414C197.332 60.648 197.782 61.17 198.016 61.422C199.798 60.936 202.048 60.108 203.506 59.262L202.3 58.686ZM206.494 59.424C208.456 60.072 210.4 60.828 211.516 61.404L212.992 60.738C211.678 60.144 209.536 59.37 207.592 58.74L206.494 59.424ZM221.768 45.564H216.656V46.644H221.768V45.564ZM222.416 47.922H215.756V49.02H222.416V47.922ZM221.804 50.352H216.584V51.414H221.804V50.352ZM216.584 53.808H221.804V52.728H216.584V53.808ZM220.67 56.238V59.262H217.736V56.238H220.67ZM221.822 60.342V55.14H216.566V61.17H217.736V60.342H221.822ZM222.65 45.852V47.112H224.9V50.874C224.9 51.234 224.9 51.594 224.882 51.954H222.452V53.214H224.828C224.612 55.734 223.928 58.344 221.786 60.486C222.074 60.684 222.542 61.152 222.74 61.404C225.188 59.01 225.908 56.058 226.106 53.214H228.446V51.954H226.16C226.178 51.594 226.178 51.234 226.178 50.892V47.112H229.04C229.04 54.78 228.986 60.666 231.002 61.278C231.902 61.638 232.496 61.026 232.712 58.056C232.478 57.894 232.118 57.426 231.866 57.102C231.812 58.614 231.668 59.946 231.524 59.91C230.282 59.622 230.336 53.466 230.408 45.852H222.65Z" fill="white"/>
<defs>
<filter id="filter0_d" x="0" y="0" width="341" height="128" filterUnits="userSpaceOnUse" color-interpolation-filters="sRGB">
<feFlood flood-opacity="0" result="BackgroundImageFix"/>
<feColorMatrix in="SourceAlpha" type="matrix" values="0 0 0 0 0 0 0 0 0 0 0 0 0 0 0 0 0 0 127 0" result="hardAlpha"/>
<feOffset dy="10"/>
<feGaussianBlur stdDeviation="17.5"/>
<feColorMatrix type="matrix" values="0 0 0 0 0.436821 0 0 0 0 0.493977 0 0 0 0 0.786636 0 0 0 0.25 0"/>
<feBlend mode="normal" in2="BackgroundImageFix" result="effect1_dropShadow"/>
<feBlend mode="normal" in="SourceGraphic" in2="effect1_dropShadow" result="shape"/>
</filter>
</defs>
</svg>
