<svg width="341" height="128" viewBox="0 0 341 128" fill="none" xmlns="http://www.w3.org/2000/svg">
<g filter="url(#filter0_d)">
<path fill-rule="evenodd" clip-rule="evenodd" d="M35 40C35 31.7157 41.7157 25 50 25H291C299.284 25 306 31.7157 306 40V68C306 76.2843 299.284 83 291 83H50C41.7157 83 35 76.2843 35 68V40Z" fill="#5669FF"/>
</g>
<circle cx="277" cy="54" r="15" fill="#3D56F0"/>
<path d="M270 53.5C270 53.0513 270.364 52.6875 270.812 52.6875H279.872L275.911 48.7267C275.587 48.4029 275.592 47.8766 275.921 47.5587C276.243 47.2485 276.753 47.2531 277.069 47.5688L282.936 53.4356C282.971 53.4712 282.971 53.5288 282.936 53.5644L277.07 59.43C276.755 59.7448 276.245 59.7448 275.93 59.43C275.616 59.1162 275.615 58.6078 275.927 58.2926L279.872 54.3125H270.812C270.364 54.3125 270 53.9487 270 53.5Z" fill="white"/>
<path d="M96.386 61.81H111.686V60.604H96.386V61.81ZM107.582 56.14H100.328V54.646H107.582V56.14ZM107.582 58.57H100.328V57.076H107.582V58.57ZM99.014 53.692V59.524H108.95V53.692H99.014ZM111.938 49.408V48.22H104.612V45.952H103.298V48.22H96.08V49.408H101.84C100.31 51.1 97.898 52.612 95.702 53.368C95.972 53.62 96.368 54.124 96.584 54.43C99.014 53.458 101.678 51.604 103.298 49.498V53.152H104.612V49.48C106.268 51.532 108.914 53.368 111.398 54.286C111.596 53.962 111.992 53.44 112.28 53.206C110.012 52.504 107.6 51.028 106.034 49.408H111.938ZM127.806 56.194H119.994V54.952H127.806V56.194ZM119.994 60.64V59.308H127.806V60.64H119.994ZM127.806 58.372H119.994V57.112H127.806V58.372ZM130.884 52.648V51.532H121.452C121.668 51.1 121.866 50.65 122.046 50.218H129.84V49.138H122.424C122.568 48.688 122.712 48.256 122.838 47.806C125.412 47.662 127.86 47.428 129.66 47.05L128.814 46.078C125.988 46.654 120.534 46.942 116.178 46.978C116.304 47.266 116.43 47.698 116.448 48.004C117.996 48.004 119.688 47.968 121.362 47.878C121.254 48.31 121.128 48.724 120.984 49.138H116.43V50.218H120.588C120.426 50.65 120.21 51.1 119.994 51.532H115.116V52.648H119.364C118.248 54.52 116.7 56.194 114.684 57.364C114.936 57.598 115.332 58.084 115.512 58.39C116.736 57.652 117.798 56.752 118.716 55.744V62.422H119.994V61.72H127.806V62.422H129.12V53.89H120.156C120.426 53.494 120.66 53.062 120.894 52.648H130.884ZM139.876 46.564H134.692V47.644H139.876V46.564ZM140.542 48.922H133.756V50.02H140.542V48.922ZM138.742 57.238V60.262H135.736V57.238H138.742ZM139.912 56.14H134.566V62.17H135.736V61.342H139.912V56.14ZM134.602 54.808H139.93V53.728H134.602V54.808ZM134.602 52.414H139.93V51.352H134.602V52.414ZM150.262 56.698H146.014V54.142H149.632V52.936H146.014V50.596H150.01V49.354H147.652C148.138 48.544 148.714 47.356 149.218 46.33L147.904 45.916C147.616 46.87 146.986 48.238 146.536 49.102L147.184 49.354H143.566L144.214 49.084C144.016 48.256 143.404 46.996 142.81 46.042L141.73 46.438C142.27 47.32 142.792 48.508 143.026 49.354H140.956V50.596H144.718V52.936H141.298V54.142H144.718V56.698H140.398V57.922H144.718V62.368H146.014V57.922H150.262V56.698ZM153.728 56.14C153.512 57.706 153.188 59.308 152.612 60.406C152.9 60.496 153.44 60.748 153.656 60.91C154.214 59.758 154.646 58.03 154.88 56.338L153.728 56.14ZM157.616 56.41C158.102 57.508 158.624 58.966 158.786 59.902L159.866 59.542C159.668 58.606 159.164 57.166 158.642 56.068L157.616 56.41ZM157.292 52.072C157.58 52.504 157.85 52.99 158.102 53.476L155.312 53.656C156.554 52.162 157.922 50.164 158.93 48.526L157.814 47.986C157.292 48.976 156.572 50.182 155.798 51.334C155.51 50.956 155.132 50.506 154.7 50.074C155.384 49.066 156.176 47.626 156.806 46.402L155.6 45.934C155.222 46.942 154.556 48.328 153.944 49.336C153.764 49.174 153.602 49.012 153.422 48.868L152.738 49.75C153.602 50.488 154.574 51.55 155.096 52.342C154.736 52.846 154.376 53.332 154.016 53.746C153.512 53.782 153.044 53.818 152.612 53.836L152.81 55.06L155.78 54.79V62.35H156.986V54.682L158.606 54.52C158.822 55.024 159.002 55.474 159.11 55.852L160.19 55.33C159.884 54.322 159.092 52.792 158.3 51.64L157.292 52.072ZM164.96 59.938V54.79H167.426V59.938H164.96ZM161.432 54.79H163.772V59.938H161.432V54.79ZM163.772 48.616V53.566H161.432V48.616H163.772ZM167.426 53.566H164.96V48.616H167.426V53.566ZM160.226 47.374V62.152H161.432V61.18H167.426V62.008H168.668V47.374H160.226ZM176.796 48.022C176.04 47.518 174.528 46.69 173.43 46.168L172.692 47.122C173.79 47.716 175.284 48.58 176.022 49.102L176.796 48.022ZM175.878 52.882C175.086 52.378 173.592 51.586 172.548 51.064L171.81 52.036C172.908 52.612 174.384 53.476 175.122 53.98L175.878 52.882ZM173.358 62.134C174.42 60.478 175.68 58.246 176.616 56.356L175.644 55.474C174.6 57.508 173.214 59.884 172.242 61.234L173.358 62.134ZM185.706 60.37H179.316V56.662H185.706V60.37ZM188.154 52.468V51.172H183.222V48.058C184.77 47.788 186.21 47.446 187.38 47.05L186.336 46.006C184.338 46.726 180.72 47.284 177.624 47.608C177.75 47.914 177.93 48.418 178.002 48.742C179.28 48.616 180.63 48.454 181.944 48.256V51.172H176.76V52.468H181.944V55.42H178.074V62.368H179.316V61.612H185.706V62.278H186.984V55.42H183.222V52.468H188.154ZM192.448 55.582V54.268H194.716V55.582H192.448ZM192.448 52.09H194.716V53.386H192.448V52.09ZM198.28 52.09V53.386H195.922V52.09H198.28ZM198.28 55.582H195.922V54.268H198.28V55.582ZM203.014 50.11C203.05 48.85 203.05 47.518 203.05 46.168H201.79C201.79 47.536 201.79 48.85 201.754 50.11H199.612V51.37H201.718C201.556 54.736 201.07 57.634 199.522 59.758V59.686C198.316 59.83 197.092 59.956 195.922 60.064V58.642H199.45V57.616H195.922V56.518H199.414V51.172H195.922V50.038H199.738V48.994H195.922V47.68C197.236 47.536 198.46 47.374 199.432 47.158L198.766 46.132C196.912 46.546 193.672 46.87 191.008 47.014C191.152 47.284 191.278 47.716 191.332 48.004C192.394 47.968 193.564 47.896 194.716 47.806V48.994H190.828V50.038H194.716V51.172H191.35V56.518H194.716V57.616H191.314V58.642H194.716V60.19C193.24 60.334 191.89 60.46 190.81 60.55L191.008 61.72C193.024 61.504 195.814 61.198 198.532 60.874C198.298 61.09 198.046 61.306 197.758 61.504C198.082 61.72 198.55 62.17 198.748 62.458C201.916 60.082 202.744 56.158 202.96 51.37H205.534C205.354 57.904 205.138 60.28 204.724 60.802C204.544 61.036 204.382 61.09 204.076 61.09C203.734 61.09 202.942 61.072 202.078 61C202.276 61.342 202.42 61.9 202.456 62.26C203.284 62.314 204.13 62.332 204.634 62.26C205.174 62.206 205.534 62.062 205.84 61.594C206.452 60.838 206.614 58.336 206.812 50.794C206.812 50.614 206.83 50.11 206.83 50.11H203.014ZM219.656 48.256C219.224 49.894 218.144 50.794 215.21 51.316C215.426 51.55 215.732 51.982 215.84 52.27C218.396 51.766 219.728 50.92 220.43 49.588C221.096 50.884 222.41 52.036 225.47 52.576C225.596 52.252 225.902 51.748 226.154 51.496C222.464 50.956 221.456 49.642 221.06 48.256H223.94C223.616 48.778 223.22 49.282 222.842 49.642L223.904 50.02C224.552 49.39 225.218 48.382 225.722 47.464L224.822 47.194L224.606 47.248H218.45C218.684 46.87 218.882 46.51 219.062 46.132L217.856 45.934C217.388 47.014 216.488 48.22 215.138 49.156C215.462 49.282 215.894 49.57 216.146 49.822C216.776 49.336 217.298 48.814 217.748 48.256H219.656ZM213.59 57.364H222.608V58.624H213.59V57.364ZM213.59 55.258H222.608V56.5H213.59V55.258ZM213.59 53.188H222.608V54.394H213.59V53.188ZM212.294 59.506H223.94V52.288H212.294V59.506ZM215.138 47.716C214.274 47.266 212.618 46.672 211.376 46.33L210.782 47.248C212.06 47.644 213.716 48.274 214.544 48.76L215.138 47.716ZM214.922 49.678C213.086 50.182 211.196 50.722 209.9 51.028L210.422 52.198C211.772 51.766 213.464 51.244 215.084 50.722L214.922 49.678ZM215.3 59.686C214.022 60.406 211.862 61.036 210.026 61.414C210.332 61.648 210.782 62.17 211.016 62.422C212.798 61.936 215.048 61.108 216.506 60.262L215.3 59.686ZM219.494 60.424C221.456 61.072 223.4 61.828 224.516 62.404L225.992 61.738C224.678 61.144 222.536 60.37 220.592 59.74L219.494 60.424ZM234.768 46.564H229.656V47.644H234.768V46.564ZM235.416 48.922H228.756V50.02H235.416V48.922ZM234.804 51.352H229.584V52.414H234.804V51.352ZM229.584 54.808H234.804V53.728H229.584V54.808ZM233.67 57.238V60.262H230.736V57.238H233.67ZM234.822 61.342V56.14H229.566V62.17H230.736V61.342H234.822ZM235.65 46.852V48.112H237.9V51.874C237.9 52.234 237.9 52.594 237.882 52.954H235.452V54.214H237.828C237.612 56.734 236.928 59.344 234.786 61.486C235.074 61.684 235.542 62.152 235.74 62.404C238.188 60.01 238.908 57.058 239.106 54.214H241.446V52.954H239.16C239.178 52.594 239.178 52.234 239.178 51.892V48.112H242.04C242.04 55.78 241.986 61.666 244.002 62.278C244.902 62.638 245.496 62.026 245.712 59.056C245.478 58.894 245.118 58.426 244.866 58.102C244.812 59.614 244.668 60.946 244.524 60.91C243.282 60.622 243.336 54.466 243.408 46.852H235.65Z" fill="white"/>
<defs>
<filter id="filter0_d" x="0" y="0" width="341" height="128" filterUnits="userSpaceOnUse" color-interpolation-filters="sRGB">
<feFlood flood-opacity="0" result="BackgroundImageFix"/>
<feColorMatrix in="SourceAlpha" type="matrix" values="0 0 0 0 0 0 0 0 0 0 0 0 0 0 0 0 0 0 127 0" result="hardAlpha"/>
<feOffset dy="10"/>
<feGaussianBlur stdDeviation="17.5"/>
<feColorMatrix type="matrix" values="0 0 0 0 0.436821 0 0 0 0 0.493977 0 0 0 0 0.786636 0 0 0 0.25 0"/>
<feBlend mode="normal" in2="BackgroundImageFix" result="effect1_dropShadow"/>
<feBlend mode="normal" in="SourceGraphic" in2="effect1_dropShadow" result="shape"/>
</filter>
</defs>
</svg>
