<svg width="40" height="40" viewBox="0 0 40 40" fill="none" xmlns="http://www.w3.org/2000/svg">
<path d="M15 15H11.6667V18.3333H15V15Z" fill="#2E3A59"/>
<path d="M18.3333 15H21.6667V18.3333H18.3333V15Z" fill="#2E3A59"/>
<path d="M28.3333 15H25V18.3333H28.3333V15Z" fill="#2E3A59"/>
<path d="M5 8.33333V35L13 29C13.5764 28.5661 14.2786 28.332 15 28.3333H31.6667C33.5076 28.3333 35 26.8409 35 25V8.33333C35 6.49238 33.5076 5 31.6667 5H8.33333C6.49238 5 5 6.49238 5 8.33333ZM8.33333 28.3333V8.33333H31.6667V25H13.89C13.1685 24.9981 12.4661 25.2322 11.89 25.6667L8.33333 28.3333Z" fill="#2E3A59"/>
</svg>
