<svg width="24" height="8" viewBox="0 0 24 8" fill="none" xmlns="http://www.w3.org/2000/svg">
<path opacity="0.4" fill-rule="evenodd" clip-rule="evenodd" d="M8.18376 2.35195H15.8621V0.564178H8.18376V2.35195ZM6.43707 0.637596V0.646496C5.83768 0.701008 5.24473 0.820044 4.66786 0.999155V0.99248C4.65071 0.999694 4.63457 1.00524 4.61907 1.01057C4.59873 1.01756 4.57951 1.02417 4.56064 1.03364C4.51453 1.04477 4.4695 1.06145 4.42661 1.08259C4.30008 1.12375 4.17356 1.1727 4.05454 1.22277C4.02291 1.235 3.99128 1.24919 3.95965 1.26337C3.92801 1.27756 3.89638 1.29174 3.86475 1.30398C3.82133 1.32456 3.77602 1.34709 3.73072 1.36962C3.68542 1.39214 3.64012 1.41467 3.59669 1.43525L3.38224 1.55874C3.34259 1.57896 3.30589 1.60268 3.26844 1.62688C3.24614 1.64129 3.22357 1.65587 3.19996 1.66999C2.87721 1.87802 2.57806 2.12166 2.30785 2.39867L2.29177 2.41536C2.25628 2.45673 2.22094 2.49687 2.18608 2.53646C2.1272 2.60334 2.06968 2.66867 2.01513 2.73575L1.99905 2.75133C1.12195 3.96172 0.68233 5.45357 0.75846 6.96544V7.44492H2.49013V6.96099C2.49013 4.85393 3.16136 3.54231 4.655 2.87036C5.22543 2.62895 5.82803 2.47988 6.44136 2.42537H6.45744V0.645383L6.43707 0.637596ZM21.9975 2.72908L22.005 2.74465C22.881 3.95616 23.3185 5.44912 23.2413 6.96099V7.44493H21.5107V6.94875C21.5471 6.05654 21.3681 5.16877 20.9885 4.36666C20.6239 3.68026 20.0406 3.14738 19.3362 2.85813C18.7754 2.61672 18.1814 2.46653 17.5755 2.41313V0.642046C18.1749 0.697671 18.7679 0.815595 19.3458 0.994706V0.985806C19.3783 1.00054 19.4031 1.0093 19.4456 1.02434L19.453 1.02697C19.4728 1.03395 19.4912 1.04093 19.5094 1.04783C19.5347 1.05742 19.5596 1.06686 19.5871 1.07592C19.7056 1.11481 19.8165 1.16066 19.9306 1.20782L19.9506 1.21609C20.0032 1.23458 20.0528 1.25751 20.0975 1.27817C20.1119 1.28486 20.1259 1.29131 20.1393 1.2973C20.2336 1.33847 20.3301 1.38742 20.4073 1.42858C20.4588 1.45529 20.509 1.48389 20.556 1.5107C20.5814 1.5252 20.606 1.53918 20.6293 1.55206C20.6677 1.57328 20.7011 1.59598 20.7332 1.6178C20.7567 1.63375 20.7795 1.64922 20.803 1.66331C21.1268 1.87246 21.4292 2.11721 21.7026 2.39199L21.7123 2.40868C21.813 2.50992 21.9085 2.61672 21.9975 2.72908Z" fill="#5669FF"/>
</svg>
