<svg width="24" height="17" viewBox="0 0 24 17" fill="none" xmlns="http://www.w3.org/2000/svg">
<path fill-rule="evenodd" clip-rule="evenodd" d="M0.75 10.1377V0.444916H23.25V10.1377C23.25 14.3645 20.8895 16.5 16.2114 16.5H7.7779C3.11052 16.5 0.75 14.3645 0.75 10.1377ZM5.82513 5.83349C5.82513 6.41993 6.2865 6.89572 6.85517 6.89572C7.43457 6.89572 7.89594 6.40887 7.88521 5.82243C7.88521 5.23599 7.42384 4.7602 6.8659 4.7602H6.85517C6.2865 4.7602 5.82513 5.24706 5.82513 5.83349ZM10.9646 5.83349C10.9646 6.41993 11.4367 6.89572 12.0054 6.89572C12.574 6.89572 13.0354 6.41993 13.0354 5.82243C13.0354 5.24706 12.574 4.77127 12.0054 4.7602H11.9946C11.426 4.77127 10.9646 5.24706 10.9646 5.83349ZM17.1449 6.89573C16.5762 6.89573 16.1148 6.41994 16.1148 5.8335C16.1148 5.24707 16.5655 4.77128 17.1449 4.77128C17.7135 4.77128 18.1749 5.24707 18.1749 5.8335C18.1749 6.41994 17.7135 6.89573 17.1449 6.89573ZM17.1449 11.4323C16.5762 11.4323 16.1148 10.9565 16.1041 10.3701C16.1041 9.78364 16.5655 9.30785 17.1341 9.30785H17.1449C17.7135 9.30785 18.1749 9.78364 18.1749 10.3701C18.1749 10.9565 17.7135 11.4323 17.1449 11.4323ZM12.0054 11.4323C11.4367 11.4323 10.9646 10.9565 10.9646 10.3701C10.9646 9.78364 11.426 9.30786 11.9946 9.29679H12.0054C12.574 9.30786 13.0247 9.78364 13.0354 10.359C13.0354 10.9565 12.574 11.4323 12.0054 11.4323ZM6.85515 11.4323C6.28648 11.4323 5.82511 10.9565 5.82511 10.3701C5.81438 9.78364 6.27575 9.29679 6.85515 9.29679C7.42382 9.29679 7.88519 9.77258 7.88519 10.359C7.88519 10.9455 7.42382 11.4323 6.85515 11.4323Z" fill="#5669FF"/>
</svg>
