<svg width="113" height="113" viewBox="0 0 113 113" fill="none" xmlns="http://www.w3.org/2000/svg">
<mask id="mask0" style="mask-type:alpha" maskUnits="userSpaceOnUse" x="0" y="0" width="113" height="113">
<circle cx="56.5" cy="56.5" r="56.5" fill="#DADADA"/>
</mask>
<g mask="url(#mask0)">
<g clip-path="url(#clip0)">
<path d="M58.1391 103.665H22.2053C18.7322 103.665 15.9168 100.85 15.9168 97.3767V91.0879H64.1795L58.1391 103.665Z" fill="#D3DCFB"/>
<path d="M97.6759 53.3557V79.7752V97.3763H22.2053C18.7322 97.3763 15.9168 94.5607 15.9168 91.0876V53.3557L59.9408 37.6338L97.6759 53.3557Z" fill="#EBF5FC"/>
<path d="M27.0222 65.9331H23.6814C22.8674 65.9331 22.2075 65.2732 22.2075 64.4592V61.1184C22.2075 60.3044 22.8674 59.6445 23.6814 59.6445H27.0222C27.8362 59.6445 28.4961 60.3044 28.4961 61.1184V64.4592C28.4961 65.2732 27.8362 65.9331 27.0222 65.9331Z" fill="#3C58A0"/>
<path d="M39.5997 65.9331H36.2589C35.4449 65.9331 34.7849 65.2732 34.7849 64.4592V61.1184C34.7849 60.3044 35.4449 59.6445 36.2589 59.6445H39.5997C40.4136 59.6445 41.0736 60.3044 41.0736 61.1184V64.4592C41.0736 65.2732 40.4136 65.9331 39.5997 65.9331Z" fill="#3C58A0"/>
<path d="M52.1769 65.9331H48.8361C48.0222 65.9331 47.3622 65.2732 47.3622 64.4592V61.1184C47.3622 60.3044 48.0222 59.6445 48.8361 59.6445H52.1769C52.9909 59.6445 53.6509 60.3044 53.6509 61.1184V64.4592C53.6509 65.2732 52.9911 65.9331 52.1769 65.9331Z" fill="#3C58A0"/>
<path d="M64.7544 65.9331H61.4136C60.5996 65.9331 59.9397 65.2732 59.9397 64.4592V61.1184C59.9397 60.3044 60.5996 59.6445 61.4136 59.6445H64.7544C65.5684 59.6445 66.2283 60.3044 66.2283 61.1184V64.4592C66.2283 65.2732 65.5684 65.9331 64.7544 65.9331Z" fill="#3C58A0"/>
<path d="M77.3296 65.9331H73.9888C73.1748 65.9331 72.5149 65.2732 72.5149 64.4592V61.1184C72.5149 60.3044 73.1748 59.6445 73.9888 59.6445H77.3296C78.1436 59.6445 78.8035 60.3044 78.8035 61.1184V64.4592C78.8035 65.2732 78.1438 65.9331 77.3296 65.9331Z" fill="#3C58A0"/>
<path d="M89.9071 65.9331H86.5663C85.7523 65.9331 85.0923 65.2732 85.0923 64.4592V61.1184C85.0923 60.3044 85.7523 59.6445 86.5663 59.6445H89.9071C90.721 59.6445 91.381 60.3044 91.381 61.1184V64.4592C91.381 65.2732 90.721 65.9331 89.9071 65.9331Z" fill="#3C58A0"/>
<path d="M27.0222 78.5104H23.6814C22.8674 78.5104 22.2075 77.8504 22.2075 77.0365V73.6957C22.2075 72.8817 22.8674 72.2217 23.6814 72.2217H27.0222C27.8362 72.2217 28.4961 72.8817 28.4961 73.6957V77.0365C28.4961 77.8506 27.8362 78.5104 27.0222 78.5104Z" fill="#3C58A0"/>
<path d="M39.5997 78.5104H36.2589C35.4449 78.5104 34.7849 77.8504 34.7849 77.0365V73.6957C34.7849 72.8817 35.4449 72.2217 36.2589 72.2217H39.5997C40.4136 72.2217 41.0736 72.8817 41.0736 73.6957V77.0365C41.0736 77.8506 40.4136 78.5104 39.5997 78.5104Z" fill="#3C58A0"/>
<path d="M52.1769 78.5104H48.8361C48.0222 78.5104 47.3622 77.8504 47.3622 77.0365V73.6957C47.3622 72.8817 48.0222 72.2217 48.8361 72.2217H52.1769C52.9909 72.2217 53.6509 72.8817 53.6509 73.6957V77.0365C53.6509 77.8506 52.9911 78.5104 52.1769 78.5104Z" fill="#3C58A0"/>
<path d="M66.2283 78.5104V73.7938C66.2283 72.9255 65.5245 72.2217 64.6562 72.2217H61.5118C60.6435 72.2217 59.9397 72.9255 59.9397 73.7938V76.9383C59.9397 77.8066 60.6436 78.5104 61.5118 78.5104H66.2283Z" fill="#3C58A0"/>
<path d="M27.0222 91.0878H23.6814C22.8674 91.0878 22.2075 90.4279 22.2075 89.6139V86.2731C22.2075 85.4591 22.8674 84.7992 23.6814 84.7992H27.0222C27.8362 84.7992 28.4961 85.4591 28.4961 86.2731V89.6139C28.4961 90.4279 27.8362 91.0878 27.0222 91.0878Z" fill="#3C58A0"/>
<path d="M39.5997 91.0878H36.2589C35.4449 91.0878 34.7849 90.4279 34.7849 89.6139V86.2731C34.7849 85.4591 35.4449 84.7992 36.2589 84.7992H39.5997C40.4136 84.7992 41.0736 85.4591 41.0736 86.2731V89.6139C41.0736 90.4279 40.4136 91.0878 39.5997 91.0878Z" fill="#3C58A0"/>
<path d="M52.1769 91.0878H48.8361C48.0222 91.0878 47.3622 90.4279 47.3622 89.6139V86.2731C47.3622 85.4591 48.0222 84.7992 48.8361 84.7992H52.1769C52.9909 84.7992 53.6509 85.4591 53.6509 86.2731V89.6139C53.6509 90.4279 52.9911 91.0878 52.1769 91.0878Z" fill="#3C58A0"/>
<path d="M89.8627 59.6443H86.6108C86.4141 59.6443 86.2267 59.683 86.0541 59.751C86.6169 59.9732 87.0156 60.5207 87.0156 61.1626V64.4144C87.0156 65.0563 86.6167 65.6039 86.0541 65.8261C86.2267 65.8942 86.4141 65.9329 86.6108 65.9329H89.8627C90.7013 65.9329 91.3812 65.2531 91.3812 64.4146V61.1628C91.381 60.3241 90.7012 59.6443 89.8627 59.6443Z" fill="#2A428C"/>
<path d="M77.2852 59.6443H74.0334C73.8366 59.6443 73.6493 59.683 73.4766 59.751C74.0395 59.9732 74.4382 60.5207 74.4382 61.1626V64.4144C74.4382 65.0563 74.0393 65.6039 73.4766 65.8261C73.6493 65.8942 73.8366 65.9329 74.0334 65.9329H77.2852C78.1239 65.9329 78.8035 65.2531 78.8035 64.4146V61.1628C78.8035 60.3241 78.1239 59.6443 77.2852 59.6443Z" fill="#2A428C"/>
<path d="M64.71 59.6443H61.4581C61.2614 59.6443 61.074 59.683 60.9014 59.751C61.4642 59.9732 61.8631 60.5207 61.8631 61.1626V64.4144C61.8631 65.0563 61.4642 65.6039 60.9014 65.8261C61.074 65.8942 61.2614 65.9329 61.4581 65.9329H64.71C65.5486 65.9329 66.2285 65.2531 66.2285 64.4146V61.1628C66.2283 60.3241 65.5484 59.6443 64.71 59.6443Z" fill="#2A428C"/>
<path d="M52.1325 59.6443H48.8807C48.6839 59.6443 48.4965 59.683 48.3239 59.751C48.8868 59.9732 49.2856 60.5207 49.2856 61.1626V64.4144C49.2856 65.0563 48.8868 65.6039 48.3239 65.8261C48.4965 65.8942 48.6839 65.9329 48.8807 65.9329H52.1325C52.9712 65.9329 53.651 65.2531 53.651 64.4146V61.1628C53.6508 60.3241 52.9712 59.6443 52.1325 59.6443Z" fill="#2A428C"/>
<path d="M39.555 59.6443H36.3032C36.1065 59.6443 35.9191 59.683 35.7465 59.751C36.3093 59.9732 36.708 60.5207 36.708 61.1626V64.4144C36.708 65.0563 36.3091 65.6039 35.7465 65.8261C35.9191 65.8942 36.1065 65.9329 36.3032 65.9329H39.555C40.3937 65.9329 41.0735 65.2531 41.0735 64.4146V61.1628C41.0735 60.3241 40.3937 59.6443 39.555 59.6443Z" fill="#2A428C"/>
<path d="M26.9778 59.6443H23.726C23.5292 59.6443 23.3418 59.683 23.1692 59.751C23.732 59.9732 24.1309 60.5207 24.1309 61.1626V64.4144C24.1309 65.0563 23.732 65.6039 23.1692 65.8261C23.3418 65.8942 23.5292 65.9329 23.726 65.9329H26.9778C27.8164 65.9329 28.4963 65.2531 28.4963 64.4146V61.1628C28.4961 60.3241 27.8163 59.6443 26.9778 59.6443Z" fill="#2A428C"/>
<path d="M26.9778 72.2217H23.726C23.5292 72.2217 23.3418 72.2604 23.1692 72.3284C23.732 72.5506 24.1309 73.0982 24.1309 73.7401V76.9921C24.1309 77.6339 23.732 78.1815 23.1692 78.4037C23.3418 78.4719 23.5292 78.5106 23.726 78.5106H26.9778C27.8164 78.5106 28.4963 77.8307 28.4963 76.9922V73.7402C28.4961 72.9016 27.8163 72.2217 26.9778 72.2217Z" fill="#2A428C"/>
<path d="M26.9778 84.7992H23.726C23.5292 84.7992 23.3418 84.8379 23.1692 84.9059C23.732 85.1281 24.1309 85.6756 24.1309 86.3175V89.5695C24.1309 90.2114 23.732 90.759 23.1692 90.9812C23.3418 91.0493 23.5292 91.088 23.726 91.088H26.9778C27.8164 91.088 28.4963 90.4082 28.4963 89.5697V86.3177C28.4961 85.4789 27.8163 84.7992 26.9778 84.7992Z" fill="#2A428C"/>
<path d="M39.555 72.2217H36.3032C36.1065 72.2217 35.9191 72.2604 35.7465 72.3284C36.3093 72.5506 36.708 73.0982 36.708 73.7401V76.9921C36.708 77.6339 36.3091 78.1815 35.7465 78.4037C35.9191 78.4719 36.1065 78.5106 36.3032 78.5106H39.555C40.3937 78.5106 41.0735 77.8307 41.0735 76.9922V73.7402C41.0735 72.9016 40.3937 72.2217 39.555 72.2217Z" fill="#2A428C"/>
<path d="M39.555 84.7992H36.3032C36.1065 84.7992 35.9191 84.8379 35.7465 84.9059C36.3093 85.1281 36.708 85.6756 36.708 86.3175V89.5695C36.708 90.2114 36.3091 90.759 35.7465 90.9812C35.9191 91.0493 36.1065 91.088 36.3032 91.088H39.555C40.3937 91.088 41.0735 90.4082 41.0735 89.5697V86.3177C41.0735 85.4789 40.3937 84.7992 39.555 84.7992Z" fill="#2A428C"/>
<path d="M52.1325 72.2217H48.8807C48.6839 72.2217 48.4965 72.2604 48.3239 72.3284C48.8868 72.5506 49.2856 73.0982 49.2856 73.7401V76.9921C49.2856 77.6339 48.8868 78.1815 48.3239 78.4037C48.4965 78.4719 48.6839 78.5106 48.8807 78.5106H52.1325C52.9712 78.5106 53.651 77.8307 53.651 76.9922V73.7402C53.6508 72.9016 52.9712 72.2217 52.1325 72.2217Z" fill="#2A428C"/>
<path d="M66.2283 78.5104V73.7401C66.2283 72.9014 65.5484 72.2217 64.7098 72.2217H61.458C61.2612 72.2217 61.0738 72.2604 60.9012 72.3284C61.464 72.5506 61.8629 73.0982 61.8629 73.7401V76.9921C61.8629 77.6339 61.464 78.1815 60.9012 78.4037C61.0738 78.4719 61.2612 78.5106 61.458 78.5106H66.2283V78.5104Z" fill="#2A428C"/>
<path d="M52.1325 84.7992H48.8807C48.6839 84.7992 48.4965 84.8379 48.3239 84.9059C48.8868 85.1281 49.2856 85.6756 49.2856 86.3175V89.5695C49.2856 90.2114 48.8868 90.759 48.3239 90.9812C48.4965 91.0493 48.6839 91.088 48.8807 91.088H52.1325C52.9712 91.088 53.651 90.4082 53.651 89.5697V86.3177C53.6508 85.4789 52.9712 84.7992 52.1325 84.7992Z" fill="#2A428C"/>
<path d="M93.3074 51.5356V79.7752V97.3765H97.6759V79.7752V53.3557L93.3074 51.5356Z" fill="#D3DCFB"/>
<path d="M97.6759 53.3556V37.6338C97.6759 34.1607 94.8603 31.3453 91.3874 31.3453H22.2053C18.7322 31.3453 15.9168 34.1607 15.9168 37.6338V53.3556H97.6759Z" fill="#FF4155"/>
<path d="M35.7317 39.0574H31.6385C30.8522 39.0574 30.2151 38.4201 30.2151 37.6339C30.2151 36.8478 30.8523 36.2105 31.6385 36.2105H35.7317C36.5181 36.2105 37.1552 36.8478 37.1552 37.6339C37.1552 38.4201 36.5179 39.0574 35.7317 39.0574Z" fill="#E80054"/>
<path d="M45.7879 39.0574H41.6946C40.9083 39.0574 40.2712 38.4201 40.2712 37.6339C40.2712 36.8478 40.9085 36.2105 41.6946 36.2105H45.7879C46.5742 36.2105 47.2113 36.8478 47.2113 37.6339C47.2113 38.4201 46.5742 39.0574 45.7879 39.0574Z" fill="#E80054"/>
<path d="M71.8938 39.0574H67.8004C67.0141 39.0574 66.377 38.4201 66.377 37.6339C66.377 36.8478 67.0142 36.2105 67.8004 36.2105H71.8938C72.6801 36.2105 73.3172 36.8478 73.3172 37.6339C73.3172 38.4201 72.6801 39.0574 71.8938 39.0574Z" fill="#E80054"/>
<path d="M81.9501 39.0574H77.8567C77.0704 39.0574 76.4333 38.4201 76.4333 37.6339C76.4333 36.8478 77.0706 36.2105 77.8567 36.2105H81.9501C82.7365 36.2105 83.3736 36.8478 83.3736 37.6339C83.3736 38.4201 82.7363 39.0574 81.9501 39.0574Z" fill="#E80054"/>
<path d="M42.6436 36.8478C42.6436 39.0185 40.884 40.7782 38.7133 40.7782C36.5426 40.7782 34.7829 39.0185 34.7829 36.8478V28.9869C34.7827 26.8162 36.5424 25.0565 38.7131 25.0565C40.8838 25.0565 42.6435 26.8162 42.6435 28.9869V36.8478H42.6436Z" fill="#EBF5FC"/>
<path d="M78.8058 36.8478C78.8058 39.0185 77.0461 40.7782 74.8754 40.7782C72.7047 40.7782 70.9448 39.0185 70.9448 36.8478V28.9869C70.9448 26.8162 72.7045 25.0565 74.8752 25.0565C77.0459 25.0565 78.8056 26.8162 78.8056 28.9869V36.8478H78.8058Z" fill="#EBF5FC"/>
<path d="M74.8752 25.0565C74.0682 25.0565 73.3187 25.3005 72.6945 25.7176C73.7493 26.4225 74.4444 27.6232 74.4444 28.9871V36.8478C74.4444 38.2116 73.7493 39.4124 72.6945 40.1173C73.3185 40.5343 74.0682 40.7784 74.8752 40.7784C77.0459 40.7784 78.8055 39.0187 78.8055 36.848V28.9869C78.8057 26.8162 77.0461 25.0565 74.8752 25.0565V25.0565Z" fill="#D3DCFB"/>
<path d="M38.7131 25.0565C37.9061 25.0565 37.1566 25.3005 36.5324 25.7176C37.5872 26.4225 38.2823 27.6232 38.2823 28.9871V36.8478C38.2823 38.2116 37.5872 39.4124 36.5324 40.1173C37.1564 40.5343 37.9061 40.7784 38.7131 40.7784C40.8838 40.7784 42.6434 39.0187 42.6434 36.848V28.9869C42.6436 26.8162 40.884 25.0565 38.7131 25.0565V25.0565Z" fill="#D3DCFB"/>
<path d="M91.3874 31.3452H87.0204C90.4935 31.3452 93.3089 34.1605 93.3089 37.6336V53.3557H97.6757V37.6338C97.6759 34.1607 94.8603 31.3452 91.3874 31.3452Z" fill="#E80054"/>
<path d="M15.9166 45.6434H97.6759V48.4905H15.9166V45.6434Z" fill="#E80054"/>
<path d="M80.3789 119.387C93.4032 119.387 103.962 108.829 103.962 95.8044C103.962 82.78 93.4032 72.2217 80.3789 72.2217C67.3546 72.2217 56.7963 82.78 56.7963 95.8044C56.7963 108.829 67.3546 119.387 80.3789 119.387Z" fill="#4FABF7"/>
<path d="M80.3789 113.098C89.9301 113.098 97.6729 105.356 97.6729 95.8043C97.6729 86.2532 89.9301 78.5104 80.3789 78.5104C70.8277 78.5104 63.085 86.2532 63.085 95.8043C63.085 105.356 70.8277 113.098 80.3789 113.098Z" fill="#EBF5FC"/>
<path d="M80.3789 94.0834C79.5926 94.0834 78.9555 93.4461 78.9555 92.66V84.799C78.9555 84.0129 79.5928 83.3756 80.3789 83.3756C81.1653 83.3756 81.8024 84.0129 81.8024 84.799V92.66C81.8024 93.4461 81.1651 94.0834 80.3789 94.0834Z" fill="#3C58A0"/>
<path d="M88.2399 97.2277H83.5232C82.7368 97.2277 82.0997 96.5904 82.0997 95.8043C82.0997 95.0181 82.737 94.3809 83.5232 94.3809H88.2399C89.0262 94.3809 89.6633 95.0181 89.6633 95.8043C89.6633 96.5904 89.026 97.2277 88.2399 97.2277Z" fill="#3C58A0"/>
<path d="M80.3789 72.2217C79.6429 72.2217 78.9152 72.2573 78.1963 72.3233C90.197 73.4248 99.596 83.5162 99.596 95.8044C99.596 108.093 90.1969 118.184 78.1961 119.285C78.915 119.351 79.6427 119.387 80.3788 119.387C93.403 119.387 103.961 108.829 103.961 95.8044C103.961 82.7801 93.4032 72.2217 80.3789 72.2217Z" fill="#1886EA"/>
<path d="M80.379 78.5104C79.6402 78.5104 78.9122 78.557 78.1978 78.6469C86.7192 79.7194 93.3105 86.992 93.3105 95.8043C93.3105 104.617 86.7192 111.889 78.1978 112.962C78.9122 113.052 79.6402 113.098 80.379 113.098C89.9301 113.098 97.673 105.355 97.673 95.8043C97.673 86.2532 89.9301 78.5104 80.379 78.5104Z" fill="#D3DCFB"/>
<path d="M80.3789 98.9487C82.1155 98.9487 83.5234 97.5409 83.5234 95.8043C83.5234 94.0677 82.1155 92.6599 80.3789 92.6599C78.6423 92.6599 77.2345 94.0677 77.2345 95.8043C77.2345 97.5409 78.6423 98.9487 80.3789 98.9487Z" fill="#FFDD40"/>
</g>
</g>
<defs>
<clipPath id="clip0">
<rect width="94.3304" height="94.3304" fill="white" transform="translate(12.7739 25.0565)"/>
</clipPath>
</defs>
</svg>
